<svg width="25" height="25" viewBox="0 0 25 25" fill="none" xmlns="http://www.w3.org/2000/svg">
<path d="M19.7145 18.6528H18.4271L18.4331 17.8994C18.4331 17.5645 18.7059 17.2906 19.0395 17.2906H19.1216C19.4557 17.2906 19.7293 17.5645 19.7293 17.8994L19.7145 18.6528ZM14.8862 17.0382C14.5597 17.0382 14.2926 17.2593 14.2926 17.5301V21.1945C14.2926 21.4648 14.5597 21.6854 14.8862 21.6854C15.2141 21.6854 15.4815 21.4648 15.4815 21.1945V17.5301C15.4815 17.2591 15.2141 17.0382 14.8862 17.0382ZM22.7271 14.9884V21.9596C22.7271 23.6317 21.288 25 19.5295 25H6.37954C4.62019 25 3.18164 23.6317 3.18164 21.9596V14.9884C3.18164 13.3163 4.62019 11.9477 6.37954 11.9477H19.5295C21.288 11.9477 22.7271 13.3163 22.7271 14.9884ZM7.25674 22.7165L7.2557 15.3732L8.88579 15.3737V14.2856L4.54044 14.2791V15.3487L5.8969 15.3527V22.7165H7.25674ZM12.1431 16.467H10.784V20.3883C10.784 20.9556 10.8182 21.2392 10.782 21.3392C10.6715 21.6434 10.1747 21.9661 9.98111 21.3721C9.94828 21.2681 9.97721 20.9542 9.97668 20.4153L9.97121 16.467H8.61971L8.62388 20.3531C8.62492 20.9487 8.61059 21.3931 8.62857 21.595C8.66167 21.9514 8.64994 22.3672 8.97804 22.6043C9.58942 23.0484 10.7614 22.5381 11.0546 21.9036L11.0519 22.7133L12.1434 22.7146V16.467H12.1431ZM16.4908 20.9574L16.4879 17.6937C16.4869 16.4499 15.5636 15.7049 14.31 16.7112L14.3155 14.2848L12.9578 14.2869L12.9512 22.6621L14.0674 22.6456L14.1691 22.124C15.5961 23.4431 16.4929 22.5395 16.4908 20.9574ZM20.7441 20.5248L19.7249 20.5304C19.7244 20.5711 19.7231 20.6181 19.7226 20.6693V21.2423C19.7226 21.5488 19.4711 21.7986 19.1657 21.7986H18.966C18.6601 21.7986 18.4089 21.5488 18.4089 21.2423V21.1788V20.5485V19.7351H20.7423V18.8501C20.7423 18.2032 20.7259 17.5566 20.6727 17.1869C20.506 16.0171 18.8766 15.8315 18.0536 16.4302C17.7951 16.6172 17.5978 16.8675 17.4832 17.2039C17.3672 17.5404 17.3099 18 17.3099 18.5838V20.5296C17.3101 23.7646 21.2093 23.3074 20.7441 20.5248ZM15.5169 9.95991C15.587 10.1317 15.6959 10.2709 15.8437 10.3759C15.9896 10.4794 16.1765 10.5314 16.3998 10.5314C16.5958 10.5314 16.7694 10.4781 16.9205 10.368C17.0712 10.2585 17.1981 10.0949 17.3015 9.87666L17.276 10.414H18.7909V3.92161H17.5984V8.97454C17.5984 9.2482 17.3748 9.47222 17.1014 9.47222C16.8296 9.47222 16.6052 9.2482 16.6052 8.97454V3.92161H15.3605V8.30064C15.3605 8.85846 15.3704 9.23034 15.3869 9.41891C15.4043 9.60616 15.4468 9.78579 15.5169 9.95991ZM10.9261 6.29313C10.9261 5.66992 10.9777 5.18327 11.0801 4.8324C11.1833 4.48284 11.3686 4.20183 11.637 3.98989C11.9046 3.7769 12.2473 3.67028 12.6641 3.67028C13.0146 3.67028 13.3148 3.73961 13.5658 3.87539C13.8178 4.01196 14.0119 4.18923 14.1469 4.408C14.2842 4.62755 14.3775 4.85315 14.4273 5.084C14.4781 5.318 14.5032 5.67097 14.5032 6.14711V7.78905C14.5032 8.39125 14.4792 8.8343 14.4328 9.11557C14.3867 9.39763 14.2876 9.65921 14.1344 9.9045C13.983 10.1472 13.7878 10.3286 13.5512 10.4445C13.3119 10.5613 13.0383 10.6186 12.7292 10.6186C12.3839 10.6186 12.0931 10.5705 11.8533 10.4702C11.6128 10.3704 11.427 10.2199 11.2946 10.0201C11.1609 9.81993 11.0668 9.57622 11.01 9.29206C10.9529 9.00816 10.9258 8.58113 10.9258 8.01202V6.29313H10.9261ZM12.1126 8.87212C12.1126 9.23979 12.3842 9.53998 12.7149 9.53998C13.0458 9.53998 13.3161 9.23979 13.3161 8.87212V5.41596C13.3161 5.0488 13.0458 4.74862 12.7149 4.74862C12.3842 4.74862 12.1126 5.0488 12.1126 5.41596V8.87212ZM7.91998 10.6173H9.34914L9.35071 5.63787L11.0394 1.3723H9.47632L8.57853 4.54062L7.66797 1.36363H6.12102L7.91764 5.64024L7.91998 10.6173Z" fill="black"/>
</svg>
